<svg width="241" height="357" viewBox="0 0 241 357" fill="none" xmlns="http://www.w3.org/2000/svg">
<rect width="241" height="357" fill="#FAFAD2"/>
<g id="LOGO">
<ellipse id="Ellipse 2" cx="68.3779" cy="242.893" rx="61.1531" ry="55.1386" fill="#2D4619"/>
<ellipse id="Ellipse 3" cx="172.106" cy="245.19" rx="61.1531" ry="55.1386" fill="#2D4619"/>
<ellipse id="Ellipse 6" cx="157.553" cy="154.279" rx="57.9147" ry="49.4464" fill="#2D4619"/>
<ellipse id="Ellipse 7" cx="80.3334" cy="154.279" rx="63.5194" ry="49.4464" fill="#2D4619"/>
<ellipse id="Ellipse 10" cx="93.7222" cy="81.1216" rx="35.8075" ry="29.4944" fill="#2D4619"/>
<ellipse id="Ellipse 11" cx="147.278" cy="81.1216" rx="37.053" ry="29.4944" fill="#2D4619"/>
<path id="Polygon 1" d="M118.519 281.211L140.534 356.803H96.5043L118.519 281.211Z" fill="#2D4619"/>
<path id="Polygon 2" d="M125.957 0.0548883L145.468 72.6196L99.8958 70.7925L125.957 0.0548883Z" fill="#2D4619"/>
<ellipse id="Ellipse 5" cx="194.297" cy="259.435" rx="46.7034" ry="38.597" fill="#FAFAD2"/>
<ellipse id="Ellipse 8" cx="184.642" cy="154.279" rx="33.9393" ry="27.4702" fill="#FAFAD2"/>
<ellipse id="Ellipse 4" cx="46.7034" cy="261.732" rx="46.7034" ry="38.597" fill="#FAFAD2"/>
<ellipse id="Ellipse 12" cx="178.415" cy="89.2181" rx="37.053" ry="29.4944" fill="#FAFAD2"/>
<ellipse id="Ellipse 13" cx="64.851" cy="90.203" rx="37.053" ry="29.4944" fill="#FAFAD2"/>
<ellipse id="Ellipse 9" cx="47.0168" cy="154.279" rx="33.9393" ry="27.4702" fill="#FAFAD2"/>
</g>
</svg>
